# MagicaVoxel @ Ephtracy

# group
o 

# material
mtllib vend.mtl
usemtl palette

# normals
vn -1 0 0
vn 1 0 0
vn 0 0 1
vn 0 0 -1
vn 0 -1 0
vn 0 1 0

# texcoords
vt 0.939453 0.5
vt 0.943359 0.5
vt 0.947266 0.5
vt 0.951172 0.5
vt 0.962891 0.5
vt 0.966797 0.5
vt 0.974609 0.5
vt 0.978516 0.5
vt 0.982422 0.5
vt 0.986328 0.5
vt 0.990234 0.5

# verts
v -0.9 0 -0.7
v -0.9 0 -2
v -0.9 1.6 -0.7
v -0.9 1.6 -1.1
v -0.9 3.3 -0.9
v -0.9 3.3 -1.1
v -0.9 3.3 -2
v -0.9 3.9 -0.9
v -0.9 3.9 -2
v -0.8 1.4 -0.6
v -0.8 1.4 -0.7
v -0.8 1.6 -0.6
v -0.8 1.6 -0.7
v 0.8 0.5 -0.7
v 0.8 0.5 -0.8
v 0.8 0.9 -0.7
v 0.8 0.9 -0.8
v 0.8 1 -1.1
v 0.8 1 -1.2
v 0.8 1.1 -1.1
v 0.8 1.1 -1.2
v 0.9 0.4 -0.8
v 0.9 0.4 -1.4
v 0.9 0.9 -0.8
v 0.9 0.9 -1.1
v 0.9 1 -1.1
v 0.9 1 -1.2
v 0.9 1.1 -1.2
v 0.9 1.1 -1.4
v 1 1.7 -1.1
v 1 1.7 -1.2
v 1 3.2 -1.1
v 1 3.2 -1.2
v 1 3.4 -0.9
v 1 3.4 -1
v 1 3.8 -0.9
v 1 3.8 -1
v 1.1 0.1 -1.9
v 1.1 0.1 -2
v 1.1 3.3 -1.9
v 1.1 3.3 -2
v 1.1 3.8 -1.9
v 1.1 3.8 -2
v -0.8 0.1 -1.9
v -0.8 0.1 -2
v -0.8 3.3 -1.9
v -0.8 3.3 -2
v -0.8 3.8 -1.9
v -0.8 3.8 -2
v -0.7 1.7 -1.1
v -0.7 1.7 -1.2
v -0.7 3.2 -1.1
v -0.7 3.2 -1.2
v -0.7 3.4 -0.9
v -0.7 3.4 -1
v -0.7 3.8 -0.9
v -0.7 3.8 -1
v -0.6 0.4 -0.8
v -0.6 0.4 -1.4
v -0.6 0.9 -0.8
v -0.6 0.9 -1.1
v -0.6 1 -1.1
v -0.6 1 -1.2
v -0.6 1.1 -1.2
v -0.6 1.1 -1.4
v -0.5 0.5 -0.7
v -0.5 0.5 -0.8
v -0.5 0.9 -0.7
v -0.5 0.9 -0.8
v -0.5 1 -1.1
v -0.5 1 -1.2
v -0.5 1.1 -1.1
v -0.5 1.1 -1.2
v 1.1 1.4 -0.6
v 1.1 1.4 -0.7
v 1.1 1.6 -0.6
v 1.1 1.6 -0.7
v 1.2 0 -0.7
v 1.2 0 -2
v 1.2 1.6 -0.7
v 1.2 1.6 -1.1
v 1.2 3.3 -0.9
v 1.2 3.3 -1.1
v 1.2 3.3 -2
v 1.2 3.9 -0.9
v 1.2 3.9 -2
v -0.8 1.4 -0.6
v -0.8 1.6 -0.6
v 1.1 1.4 -0.6
v 1.1 1.6 -0.6
v -0.9 0 -0.7
v -0.9 1.6 -0.7
v -0.8 0 -0.7
v -0.8 1.4 -0.7
v -0.8 1.6 -0.7
v -0.5 0.5 -0.7
v -0.5 0.9 -0.7
v 0.8 0.5 -0.7
v 0.8 0.9 -0.7
v 1.1 0 -0.7
v 1.1 1.4 -0.7
v 1.1 1.6 -0.7
v 1.2 0 -0.7
v 1.2 1.6 -0.7
v -0.9 3.3 -0.9
v -0.9 3.9 -0.9
v -0.7 3.4 -0.9
v -0.7 3.8 -0.9
v 1 3.4 -0.9
v 1 3.8 -0.9
v 1.2 3.3 -0.9
v 1.2 3.9 -0.9
v -0.7 3.4 -1
v -0.7 3.8 -1
v 1 3.4 -1
v 1 3.8 -1
v -0.9 1.6 -1.1
v -0.9 3.3 -1.1
v -0.8 1.6 -1.1
v -0.8 3.3 -1.1
v -0.7 1.7 -1.1
v -0.7 3.2 -1.1
v -0.7 3.3 -1.1
v 1 1.7 -1.1
v 1 3.2 -1.1
v 1 3.3 -1.1
v 1.1 1.6 -1.1
v 1.1 3.3 -1.1
v 1.2 1.6 -1.1
v 1.2 3.3 -1.1
v -0.7 1.7 -1.2
v -0.7 3.2 -1.2
v 1 1.7 -1.2
v 1 3.2 -1.2
v -0.6 0.4 -1.4
v -0.6 1.1 -1.4
v -0.5 1.1 -1.4
v 0.8 1.1 -1.4
v 0.9 0.4 -1.4
v 0.9 1.1 -1.4
v -0.6 0.4 -0.8
v -0.6 0.9 -0.8
v -0.5 0.5 -0.8
v -0.5 0.9 -0.8
v 0.8 0.5 -0.8
v 0.8 0.9 -0.8
v 0.9 0.4 -0.8
v 0.9 0.9 -0.8
v -0.6 0.9 -1.1
v -0.6 1 -1.1
v -0.5 1 -1.1
v -0.5 1.1 -1.1
v 0.8 1 -1.1
v 0.8 1.1 -1.1
v 0.9 0.9 -1.1
v 0.9 1 -1.1
v -0.6 1 -1.2
v -0.6 1.1 -1.2
v -0.5 1 -1.2
v -0.5 1.1 -1.2
v 0.8 1 -1.2
v 0.8 1.1 -1.2
v 0.9 1 -1.2
v 0.9 1.1 -1.2
v -0.8 0.1 -1.9
v -0.8 3.3 -1.9
v -0.8 3.8 -1.9
v 1.1 0.1 -1.9
v 1.1 3.3 -1.9
v 1.1 3.8 -1.9
v -0.9 0 -2
v -0.9 3.3 -2
v -0.9 3.9 -2
v -0.8 0.1 -2
v -0.8 3.3 -2
v -0.8 3.8 -2
v 1.1 0.1 -2
v 1.1 3.3 -2
v 1.1 3.8 -2
v 1.2 0 -2
v 1.2 3.3 -2
v 1.2 3.9 -2
v -0.9 0 -0.7
v -0.8 0 -0.7
v 1.1 0 -0.7
v 1.2 0 -0.7
v -0.8 0 -0.8
v 1.1 0 -0.8
v -0.9 0 -2
v 1.2 0 -2
v -0.5 0.9 -0.7
v 0.8 0.9 -0.7
v -0.6 0.9 -0.8
v -0.5 0.9 -0.8
v 0.8 0.9 -0.8
v 0.9 0.9 -0.8
v -0.6 0.9 -1.1
v 0.9 0.9 -1.1
v -0.6 1 -1.1
v -0.5 1 -1.1
v 0.8 1 -1.1
v 0.9 1 -1.1
v -0.6 1 -1.2
v -0.5 1 -1.2
v 0.8 1 -1.2
v 0.9 1 -1.2
v -0.5 1.1 -1.1
v 0.8 1.1 -1.1
v -0.6 1.1 -1.2
v -0.5 1.1 -1.2
v 0.8 1.1 -1.2
v 0.9 1.1 -1.2
v -0.6 1.1 -1.4
v -0.5 1.1 -1.4
v 0.8 1.1 -1.4
v 0.9 1.1 -1.4
v -0.8 1.4 -0.6
v 1.1 1.4 -0.6
v -0.8 1.4 -0.7
v 1.1 1.4 -0.7
v -0.7 3.2 -1.1
v 1 3.2 -1.1
v -0.7 3.2 -1.2
v 1 3.2 -1.2
v -0.9 3.3 -0.9
v 1.2 3.3 -0.9
v -0.7 3.3 -1
v 1 3.3 -1
v -0.9 3.3 -1.1
v -0.8 3.3 -1.1
v -0.7 3.3 -1.1
v 1 3.3 -1.1
v 1.1 3.3 -1.1
v 1.2 3.3 -1.1
v -0.7 3.8 -0.9
v 1 3.8 -0.9
v -0.7 3.8 -1
v 1 3.8 -1
v -0.8 3.8 -1.9
v 1.1 3.8 -1.9
v -0.8 3.8 -2
v 1.1 3.8 -2
v -0.8 0.1 -1.9
v 1.1 0.1 -1.9
v -0.8 0.1 -2
v 1.1 0.1 -2
v -0.6 0.4 -0.8
v 0.9 0.4 -0.8
v -0.6 0.4 -1.4
v 0.9 0.4 -1.4
v -0.5 0.5 -0.7
v 0.8 0.5 -0.7
v -0.5 0.5 -0.8
v 0.8 0.5 -0.8
v -0.8 1.6 -0.6
v 1.1 1.6 -0.6
v -0.9 1.6 -0.7
v -0.8 1.6 -0.7
v -0.5 1.6 -0.7
v 0.5 1.6 -0.7
v 1.1 1.6 -0.7
v 1.2 1.6 -0.7
v 0.6 1.6 -0.9
v 0.7 1.6 -0.9
v 0.8 1.6 -0.9
v -0.5 1.6 -1
v 0.5 1.6 -1
v 0.6 1.6 -1
v 0.7 1.6 -1
v 0.8 1.6 -1
v -0.9 1.6 -1.1
v -0.8 1.6 -1.1
v 1.1 1.6 -1.1
v 1.2 1.6 -1.1
v -0.7 1.7 -1.1
v 1 1.7 -1.1
v -0.7 1.7 -1.2
v 1 1.7 -1.2
v -0.7 3.4 -0.9
v 1 3.4 -0.9
v -0.7 3.4 -1
v 1 3.4 -1
v -0.9 3.9 -0.9
v 1.2 3.9 -0.9
v -0.9 3.9 -2
v 1.2 3.9 -2

# faces
f 3/3/1 2/3/1 1/3/1
f 4/3/1 2/3/1 3/3/1
f 6/3/1 2/3/1 4/3/1
f 7/3/1 2/3/1 6/3/1
f 8/2/1 6/2/1 5/2/1
f 8/2/1 7/2/1 6/2/1
f 9/2/1 7/2/1 8/2/1
f 12/10/1 11/10/1 10/10/1
f 13/10/1 11/10/1 12/10/1
f 16/2/1 15/2/1 14/2/1
f 17/2/1 15/2/1 16/2/1
f 20/2/1 19/2/1 18/2/1
f 21/2/1 19/2/1 20/2/1
f 24/1/1 23/1/1 22/1/1
f 25/1/1 23/1/1 24/1/1
f 26/1/1 23/1/1 25/1/1
f 27/1/1 23/1/1 26/1/1
f 28/1/1 23/1/1 27/1/1
f 29/1/1 23/1/1 28/1/1
f 32/8/1 31/8/1 30/8/1
f 33/8/1 31/8/1 32/8/1
f 36/2/1 35/2/1 34/2/1
f 37/2/1 35/2/1 36/2/1
f 40/3/1 39/3/1 38/3/1
f 41/3/1 39/3/1 40/3/1
f 42/2/1 41/2/1 40/2/1
f 43/2/1 41/2/1 42/2/1
f 44/3/2 45/3/2 46/3/2
f 46/3/2 45/3/2 47/3/2
f 46/2/2 47/2/2 48/2/2
f 48/2/2 47/2/2 49/2/2
f 50/8/2 51/8/2 52/8/2
f 52/8/2 51/8/2 53/8/2
f 54/2/2 55/2/2 56/2/2
f 56/2/2 55/2/2 57/2/2
f 58/1/2 59/1/2 60/1/2
f 60/1/2 59/1/2 61/1/2
f 61/1/2 59/1/2 62/1/2
f 62/1/2 59/1/2 63/1/2
f 63/1/2 59/1/2 64/1/2
f 64/1/2 59/1/2 65/1/2
f 66/2/2 67/2/2 68/2/2
f 68/2/2 67/2/2 69/2/2
f 70/2/2 71/2/2 72/2/2
f 72/2/2 71/2/2 73/2/2
f 74/10/2 75/10/2 76/10/2
f 76/10/2 75/10/2 77/10/2
f 78/3/2 79/3/2 80/3/2
f 80/3/2 79/3/2 81/3/2
f 81/3/2 79/3/2 83/3/2
f 83/3/2 79/3/2 84/3/2
f 82/2/2 83/2/2 85/2/2
f 83/2/2 84/2/2 85/2/2
f 85/2/2 84/2/2 86/2/2
f 89/10/3 88/10/3 87/10/3
f 90/10/3 88/10/3 89/10/3
f 93/3/3 92/3/3 91/3/3
f 94/3/3 92/3/3 93/3/3
f 95/3/3 92/3/3 94/3/3
f 96/2/3 94/2/3 93/2/3
f 97/2/3 94/2/3 96/2/3
f 98/2/3 96/2/3 93/2/3
f 99/2/3 94/2/3 97/2/3
f 100/2/3 98/2/3 93/2/3
f 100/2/3 99/2/3 98/2/3
f 101/2/3 94/2/3 99/2/3
f 101/2/3 99/2/3 100/2/3
f 103/3/3 101/3/3 100/3/3
f 103/3/3 102/3/3 101/3/3
f 104/3/3 102/3/3 103/3/3
f 107/2/3 106/2/3 105/2/3
f 108/2/3 106/2/3 107/2/3
f 109/2/3 107/2/3 105/2/3
f 110/2/3 106/2/3 108/2/3
f 111/2/3 109/2/3 105/2/3
f 111/2/3 110/2/3 109/2/3
f 112/2/3 106/2/3 110/2/3
f 112/2/3 110/2/3 111/2/3
f 115/5/3 114/5/3 113/5/3
f 116/5/3 114/5/3 115/5/3
f 119/3/3 118/3/3 117/3/3
f 120/3/3 118/3/3 119/3/3
f 121/8/3 120/8/3 119/8/3
f 122/8/3 120/8/3 121/8/3
f 123/8/3 120/8/3 122/8/3
f 124/8/3 121/8/3 119/8/3
f 125/8/3 123/8/3 122/8/3
f 126/8/3 123/8/3 125/8/3
f 127/8/3 124/8/3 119/8/3
f 127/8/3 125/8/3 124/8/3
f 127/8/3 126/8/3 125/8/3
f 128/8/3 126/8/3 127/8/3
f 129/3/3 128/3/3 127/3/3
f 130/3/3 128/3/3 129/3/3
f 133/5/3 132/5/3 131/5/3
f 134/5/3 132/5/3 133/5/3
f 137/1/3 136/1/3 135/1/3
f 138/1/3 137/1/3 135/1/3
f 139/1/3 138/1/3 135/1/3
f 140/1/3 138/1/3 139/1/3
f 141/2/4 142/2/4 143/2/4
f 143/2/4 142/2/4 144/2/4
f 141/2/4 143/2/4 145/2/4
f 141/2/4 145/2/4 147/2/4
f 145/2/4 146/2/4 147/2/4
f 147/2/4 146/2/4 148/2/4
f 149/1/4 150/1/4 151/1/4
f 149/1/4 151/1/4 153/1/4
f 151/2/4 152/2/4 153/2/4
f 153/2/4 152/2/4 154/2/4
f 149/1/4 153/1/4 155/1/4
f 155/1/4 153/1/4 156/1/4
f 157/2/4 158/2/4 159/2/4
f 159/2/4 158/2/4 160/2/4
f 161/2/4 162/2/4 163/2/4
f 163/2/4 162/2/4 164/2/4
f 165/4/4 166/4/4 168/4/4
f 166/4/4 167/4/4 168/4/4
f 168/4/4 167/4/4 169/4/4
f 169/4/4 167/4/4 170/4/4
f 171/3/4 172/3/4 174/3/4
f 172/2/4 173/2/4 175/2/4
f 174/3/4 172/3/4 175/3/4
f 175/2/4 173/2/4 176/2/4
f 171/3/4 174/3/4 177/3/4
f 176/2/4 173/2/4 179/2/4
f 177/3/4 178/3/4 180/3/4
f 171/3/4 177/3/4 180/3/4
f 178/2/4 179/2/4 181/2/4
f 180/3/4 178/3/4 181/3/4
f 179/2/4 173/2/4 182/2/4
f 181/2/4 179/2/4 182/2/4
f 187/3/5 184/3/5 183/3/5
f 187/2/5 185/2/5 184/2/5
f 188/3/5 186/3/5 185/3/5
f 188/2/5 185/2/5 187/2/5
f 189/3/5 187/3/5 183/3/5
f 189/3/5 188/3/5 187/3/5
f 190/3/5 186/3/5 188/3/5
f 190/3/5 188/3/5 189/3/5
f 194/2/5 192/2/5 191/2/5
f 195/2/5 192/2/5 194/2/5
f 197/1/5 194/1/5 193/1/5
f 197/1/5 196/1/5 195/1/5
f 197/1/5 195/1/5 194/1/5
f 198/1/5 196/1/5 197/1/5
f 203/2/5 200/2/5 199/2/5
f 204/2/5 200/2/5 203/2/5
f 205/2/5 202/2/5 201/2/5
f 206/2/5 202/2/5 205/2/5
f 210/7/5 208/7/5 207/7/5
f 211/7/5 208/7/5 210/7/5
f 213/1/5 210/1/5 209/1/5
f 214/7/5 211/7/5 210/7/5
f 214/1/5 210/1/5 213/1/5
f 215/1/5 212/1/5 211/1/5
f 215/7/5 211/7/5 214/7/5
f 216/1/5 212/1/5 215/1/5
f 219/10/5 218/10/5 217/10/5
f 220/10/5 218/10/5 219/10/5
f 223/8/5 222/8/5 221/8/5
f 224/8/5 222/8/5 223/8/5
f 227/2/5 226/2/5 225/2/5
f 228/2/5 226/2/5 227/2/5
f 229/2/5 227/2/5 225/2/5
f 230/2/5 227/2/5 229/2/5
f 231/7/5 228/7/5 227/7/5
f 231/2/5 227/2/5 230/2/5
f 232/2/5 226/2/5 228/2/5
f 232/7/5 228/7/5 231/7/5
f 233/2/5 226/2/5 232/2/5
f 234/2/5 226/2/5 233/2/5
f 237/2/5 236/2/5 235/2/5
f 238/2/5 236/2/5 237/2/5
f 241/2/5 240/2/5 239/2/5
f 242/2/5 240/2/5 241/2/5
f 243/3/6 244/3/6 245/3/6
f 245/3/6 244/3/6 246/3/6
f 247/1/6 248/1/6 249/1/6
f 249/1/6 248/1/6 250/1/6
f 251/2/6 252/2/6 253/2/6
f 253/2/6 252/2/6 254/2/6
f 255/10/6 256/10/6 258/10/6
f 258/10/6 256/10/6 259/10/6
f 259/10/6 256/10/6 260/10/6
f 260/10/6 256/10/6 261/10/6
f 260/10/6 261/10/6 263/10/6
f 263/10/6 261/10/6 264/10/6
f 264/10/6 261/10/6 265/10/6
f 258/10/6 259/10/6 266/10/6
f 259/11/6 260/11/6 266/11/6
f 260/10/6 263/10/6 267/10/6
f 266/11/6 260/11/6 267/11/6
f 263/9/6 264/9/6 268/9/6
f 267/10/6 263/10/6 268/10/6
f 264/6/6 265/6/6 269/6/6
f 268/9/6 264/9/6 269/9/6
f 265/10/6 261/10/6 270/10/6
f 269/6/6 265/6/6 270/6/6
f 257/3/6 258/3/6 271/3/6
f 268/10/6 269/10/6 272/10/6
f 271/3/6 258/3/6 272/3/6
f 267/10/6 268/10/6 272/10/6
f 269/10/6 270/10/6 272/10/6
f 266/10/6 267/10/6 272/10/6
f 258/10/6 266/10/6 272/10/6
f 270/10/6 261/10/6 273/10/6
f 272/10/6 270/10/6 273/10/6
f 261/3/6 262/3/6 273/3/6
f 273/3/6 262/3/6 274/3/6
f 275/8/6 276/8/6 277/8/6
f 277/8/6 276/8/6 278/8/6
f 279/2/6 280/2/6 281/2/6
f 281/2/6 280/2/6 282/2/6
f 283/2/6 284/2/6 285/2/6
f 285/2/6 284/2/6 286/2/6
